Coordinates
version=1
nRows=13
nColumns=38
inDegrees=no

Units are S.I. units (second, meters, Newtons, ...)
If the header above contains a line with 'inDegrees', this indicates whether rotational values are in degrees (yes) or radians (no).

endheader
time	pelvis_tilt	pelvis_list	pelvis_rotation	pelvis_tx	pelvis_ty	pelvis_tz	hip_flexion_r	hip_adduction_r	hip_rotation_r	knee_angle_r	ankle_angle_r	subtalar_angle_r	mtp_angle_r	hip_flexion_l	hip_adduction_l	hip_rotation_l	knee_angle_l	ankle_angle_l	subtalar_angle_l	mtp_angle_l	lumbar_extension	lumbar_bending	lumbar_rotation	arm_flex_r	arm_add_r	arm_rot_r	elbow_flex_r	pro_sup_r	wrist_flex_r	wrist_dev_r	arm_flex_l	arm_add_l	arm_rot_l	elbow_flex_l	pro_sup_l	wrist_flex_l	wrist_dev_l
0	3.00778	1.29715	-1.37167	0.713825	-0.784614	1.01037	0.164953	0.0838739	-0.172056	0.777894	-0.147402	0	0	-0.182373	-0.104731	-0.224317	1.21182	-0.0781603	0	0	-0.595025	0.213712	0.513344	-0.414813	-0.336265	-0.69546	1.92737	0.712388	0	0	0.741595	-0.234652	0.775889	1.00293	0.637722	0	0
0.01	3.01854	1.30098	-1.38715	0.714797	-0.776072	1.01097	0.161219	0.0832709	-0.162795	0.780732	-0.143982	0	0	-0.151781	-0.0958473	-0.214586	1.23386	-0.0684112	0	0	-0.592687	0.205754	0.521446	-0.415633	-0.338528	-0.701171	1.92248	0.721994	0	0	0.746554	-0.22373	0.776793	0.994692	0.626132	0	0
0.02	3.02483	1.30305	-1.39754	0.715595	-0.766634	1.01199	0.151587	0.0840158	-0.156531	0.777657	-0.135772	0	0	-0.125739	-0.0904862	-0.208585	1.24789	-0.0599465	0	0	-0.592345	0.200913	0.527812	-0.416388	-0.338765	-0.703147	1.92869	0.647869	0	0	0.750053	-0.219919	0.78009	0.989548	0.637363	0	0
0.03	3.02852	1.30333	-1.40434	0.716267	-0.756944	1.0133	0.137529	0.0856128	-0.152456	0.770602	-0.128694	0	0	-0.102581	-0.087284	-0.203363	1.25582	-0.0538268	0	0	-0.593482	0.197901	0.532482	-0.416057	-0.340057	-0.705959	1.92682	0.651713	0	0	0.751966	-0.217126	0.782386	0.986206	0.639219	0	0
0.04	3.03091	1.30369	-1.4097	0.716973	-0.747292	1.01471	0.120609	0.0879266	-0.141422	0.756323	-0.122816	0	0	-0.0795473	-0.0852827	-0.198419	1.25886	-0.0491065	0	0	-0.594579	0.194849	0.536804	-0.415175	-0.341121	-0.708424	1.92478	0.655384	0	0	0.752564	-0.212685	0.781929	0.983291	0.632743	0	0
0.05	3.03729	1.303	-1.41841	0.717709	-0.737561	1.01631	0.106124	0.0874576	-0.1501	0.753562	-0.118249	0	0	-0.0582994	-0.0829334	-0.193233	1.25662	-0.0454582	0	0	-0.596866	0.190695	0.540169	-0.414002	-0.341429	-0.711156	1.92279	0.659747	0	0	0.752826	-0.207382	0.780062	0.979884	0.624648	0	0
0.06	3.04091	1.30482	-1.42515	0.718507	-0.727865	1.01762	0.0901717	0.0893755	-0.139971	0.73755	-0.112474	0	0	-0.0341914	-0.0817054	-0.189841	1.25108	-0.0419589	0	0	-0.596701	0.186576	0.544658	-0.413683	-0.340987	-0.714229	1.92151	0.666241	0	0	0.754476	-0.204112	0.78154	0.975798	0.625609	0	0
0.07	3.04687	1.30624	-1.43391	0.719228	-0.718164	1.01897	0.0761099	0.0899269	-0.138785	0.728399	-0.110306	0	0	-0.0110423	-0.0806315	-0.187931	1.2417	-0.0392054	0	0	-0.597106	0.182122	0.548158	-0.41368	-0.340532	-0.715769	1.92251	0.660586	0	0	0.754764	-0.200358	0.779963	0.972938	0.622144	0	0
0.08	3.05402	1.30752	-1.44429	0.719916	-0.708462	1.02036	0.061904	0.0896129	-0.138757	0.718864	-0.105685	0	0	0.0113209	-0.0798531	-0.188293	1.22927	-0.0377045	0	0	-0.598037	0.177262	0.552852	-0.415166	-0.339304	-0.717571	1.92508	0.654813	0	0	0.757647	-0.198515	0.783873	0.969366	0.627787	0	0
0.09	3.06307	1.30868	-1.45661	0.720521	-0.698687	1.02174	0.0471413	0.0884306	-0.13834	0.709173	-0.102052	0	0	0.0327429	-0.0789135	-0.19085	1.21431	-0.0375678	0	0	-0.597845	0.173056	0.553525	-0.412633	-0.339585	-0.71548	1.92572	0.650822	0	0	0.757028	-0.197799	0.782606	0.965973	0.629352	0	0
0.1	3.07295	1.30899	-1.46993	0.721045	-0.688821	1.02317	0.0304383	0.0868042	-0.137553	0.698185	-0.0952048	0	0	0.0522553	-0.0790042	-0.198177	1.19669	-0.0413018	0	0	-0.598104	0.169016	0.552962	-0.409277	-0.341438	-0.714247	1.91929	0.710712	0	0	0.752575	-0.195789	0.774202	0.964593	0.618684	0	0
0.11	3.082	1.30873	-1.48302	0.721514	-0.678886	1.02454	0.0128803	0.0848061	-0.136925	0.687038	-0.092044	0	0	0.0704555	-0.0814009	-0.212607	1.17752	-0.0448948	0	0	-0.599048	0.164912	0.553891	-0.407841	-0.34263	-0.712195	1.92166	0.696801	0	0	0.750652	-0.19675	0.771987	0.963779	0.619382	0	0
0.12	3.08889	1.30791	-1.49471	0.721952	-0.668802	1.02587	-0.00611038	0.0829429	-0.13692	0.674222	-0.0888765	0	0	0.0870646	-0.0874478	-0.235872	1.15695	-0.0502192	0	0	-0.600297	0.161128	0.555789	-0.407104	-0.344101	-0.710299	1.92369	0.687293	0	0	0.749399	-0.199108	0.771956	0.963073	0.626799	0	0
